<?xml version="1.0" encoding="UTF-8" standalone="no"?>
<!-- Created with Inkscape (http://www.inkscape.org/) -->

<svg
   xmlns:dc="http://purl.org/dc/elements/1.1/"
   xmlns:cc="http://creativecommons.org/ns#"
   xmlns:rdf="http://www.w3.org/1999/02/22-rdf-syntax-ns#"
   xmlns:svg="http://www.w3.org/2000/svg"
   xmlns="http://www.w3.org/2000/svg"
   xmlns:sodipodi="http://sodipodi.sourceforge.net/DTD/sodipodi-0.dtd"
   xmlns:inkscape="http://www.inkscape.org/namespaces/inkscape"
   version="1.1"
   id="svg2"
   width="1357"
   height="1920"
   viewBox="0 0 1357 1920"
   sodipodi:docname="vectorgfx.svg"
   inkscape:version="0.92.2 5c3e80d, 2017-08-06">
  <metadata
     id="metadata8">
    <rdf:RDF>
      <cc:Work
         rdf:about="">
        <dc:format>image/svg+xml</dc:format>
        <dc:type
           rdf:resource="http://purl.org/dc/dcmitype/StillImage" />
        <dc:title></dc:title>
      </cc:Work>
    </rdf:RDF>
  </metadata>
  <defs
     id="defs6">
    <filter
       inkscape:collect="always"
       style="color-interpolation-filters:sRGB"
       id="filter5117"
       x="-0.092419956"
       width="1.1848399"
       y="-0.092380053"
       height="1.1847601">
      <feGaussianBlur
         inkscape:collect="always"
         stdDeviation="20.005913"
         id="feGaussianBlur5119" />
    </filter>
  </defs>
  <sodipodi:namedview
     pagecolor="#ffffff"
     bordercolor="#666666"
     borderopacity="1"
     objecttolerance="10"
     gridtolerance="10"
     guidetolerance="10"
     inkscape:pageopacity="0"
     inkscape:pageshadow="2"
     inkscape:window-width="1918"
     inkscape:window-height="1051"
     id="namedview4"
     showgrid="false"
     inkscape:zoom="0.69532167"
     inkscape:cx="465.35117"
     inkscape:cy="1604.5218"
     inkscape:window-x="0"
     inkscape:window-y="27"
     inkscape:window-maximized="1"
     inkscape:current-layer="svg2" />
  <path
     style="fill:#f1f2cf;fill-opacity:1;filter:url(#filter5117)"
     d="m 646.46902,209.78419 c -17.7083,0 -38.11221,0.01 -61.62701,0.01 -114.4025,0 -171.9582,0.3466 -174.4512,1.039 -4.0426,1.1227 -6.7793,4.1653 -6.7793,7.5352 0,1.1735 1.5872,4.213 3.5273,6.7539 l 3.5274,4.6191 -2.1348,8.2735 c -1.1751,4.5507 -2.9015,12.5484 -3.8359,17.7734 l -1.6993,9.5 -36.7792,0.5 -36.7793,0.5 -2.5253,2.9375 c -2.4044,2.7964 -2.4918,3.3225 -1.8223,10.9981 3.4912,40.0219 20.0956,82.2272 45.8223,116.4687 27.9459,37.1953 69.4202,66.6029 115.1346,81.6387 l 11.0645,3.6406 v 8.2324 c 0,11.5462 1.9019,13.9001 16.9785,21.0117 15.7645,7.4358 23.5216,14.8754 23.5216,22.5567 0,4.0157 -2.1506,9.0062 -4.9629,11.5137 -5.0679,4.5187 -5.4062,6.6243 -3.1055,19.3671 6.4148,35.5314 15.1352,85.1521 15.6601,89.1094 l 0.6055,4.5664 -11.0019,-0.022 -11.0021,-0.019 -9.3457,4.8086 c -5.1406,2.6442 -14.2976,7.5971 -20.3476,11.0078 -14.7235,8.3004 -14.8255,8.5019 -14.0957,27.6836 0.3034,7.975 1.1528,17.7625 1.8867,21.75 0.5368,2.9167 0.7796,4.8523 0.7519,5.9922 h 203.88681 c -0.5344,-0.3697 -0.3245,-1.2725 0.2481,-3.4922 0.532,-2.0625 1.2192,-12.4104 1.5254,-22.9961 l 0.5566,-19.2461 -2.8789,-2.6035 c -1.5836,-1.4318 -10.7558,-6.9341 -20.3808,-12.2285 l -17.5,-9.627 -12.709,-0.3535 -12.709,-0.3515 0.5058,-2.6719 c 0.2781,-1.4693 4.5245,-25.3782 9.4356,-53.1328 9.857,-55.7056 9.6096,-50.9404 3.0117,-58.1582 -4.0618,-4.4435 -5.5283,-9.8505 -3.9609,-14.5996 2.0138,-6.102 8.5803,-11.535 21.9746,-18.1817 6.7669,-3.358 13.1081,-6.8343 14.0918,-7.7246 3.3094,-2.9949 5.2011,-9.8443 4.5195,-16.3652 l -0.623,-5.9629 5.7304,-1.6524 c 28.7141,-8.2749 62.5695,-26.8553 86.7325,-47.6015 44.9575,-38.6002 72.385,-90.3736 79.5214,-150.1133 0.9785,-8.1905 0.9062,-9.0618 -1.0039,-12.1523 -1.1315,-1.8309 -2.7603,-3.5982 -3.6191,-3.9278 -0.8589,-0.3295 -17.6508,-0.5996 -37.3164,-0.5996 h -35.7559 l -1.6621,-9.25 c -0.9134,-5.0875 -2.7527,-13.3 -4.0879,-18.25 l -2.4277,-9 2.8066,-3 c 4.4745,-4.7841 5.4062,-7.2124 4.0371,-10.5176 -2.3003,-5.5536 5.8231,-5.9715 -118.1347,-5.9824 z m -61.84381,41.5 c 0.9952,0 4.4926,9.3897 11.4551,30.75 l 10.0234,30.75 h 32.19541 c 18.2321,0 32.4397,0.3954 32.7578,0.9101 0.7747,1.2535 -2.1079,3.5424 -28.4375,22.6055 -12.6541,9.1618 -23.0078,17.0661 -23.0078,17.5645 -10e-5,0.4983 4.2749,14.1053 9.5,30.2383 5.2249,16.133 9.5,29.915 9.5,30.625 -10e-5,0.7524 -0.752,1.0936 -1.8047,0.8183 -0.9935,-0.2598 -13.1518,-8.681 -27.01761,-18.7129 l -25.211,-18.2402 -12.2324,8.8359 c -6.7282,4.8595 -18.2723,13.2277 -25.6523,18.5957 -7.38,5.3681 -14.0175,9.7598 -14.75,9.7598 -0.7325,0 -1.332,-0.7429 -1.332,-1.6504 0,-0.9076 3.185,-11.3701 7.0781,-23.25 11.856,-36.1791 12.1733,-37.2491 11.2832,-38.082 -0.4739,-0.4433 -12.1113,-8.975 -25.8614,-18.959 -13.75,-9.9841 -25,-18.6941 -25,-19.3555 0,-0.9068 8.0112,-1.2682 32.5626,-1.4668 l 32.5605,-0.2637 9.9785,-30.7363 c 6.9377,-21.3692 10.4161,-30.7363 11.4121,-30.7363 z m -242.1035,32.5 h 27.3985 27.3964 l 0.5957,18.75 c 0.8853,27.9285 4.7743,49.1703 12.7754,69.7637 9.7222,25.0234 22.215,44.0368 41.2207,62.7363 4.3322,4.2625 7.7263,7.7083 7.541,7.6563 -1.5884,-0.4429 -17.8299,-10.1955 -24.9258,-14.9668 -23.989,-16.1301 -47.1385,-40.0237 -62.0175,-64.0137 -14.2382,-22.9567 -25.027,-50.9674 -29.3418,-76.1758 z m 423.58991,0 h 27.8183 c 26.0174,-8e-4 27.7855,0.1113 27.3164,1.748 -0.2758,0.9625 -1.2559,5.5599 -2.1777,10.2168 -4.0023,20.2195 -14.0231,45.6049 -25.5059,64.6152 -16.38,27.118 -41.348,52.886 -67.4844,69.6465 -3.8316,2.4571 -10.1167,6.1838 -13.9667,8.2813 l -7,3.8125 10.0976,-10.4102 c 33.8247,-34.8773 50.4168,-77.7267 50.7871,-131.1601 z"
     id="path4506"
     inkscape:connector-curvature="0"
     inkscape:export-filename="/tmp/cup.png"
     inkscape:export-xdpi="73.910004"
     inkscape:export-ydpi="73.910004" />
  <path
     inkscape:export-ydpi="73.910004"
     inkscape:export-xdpi="73.910004"
     inkscape:export-filename="/tmp/cup.png"
     inkscape:connector-curvature="0"
     id="path4511"
     d="m 646.46902,209.78418 c -17.7083,0 -38.1122,0.01 -61.627,0.01 -114.40255,0 -171.95825,0.3466 -174.45125,1.039 -4.0426,1.1227 -6.7793,4.1653 -6.7793,7.5352 0,1.1735 1.5872,4.213 3.5273,6.7539 l 3.5274,4.6191 -2.1348,8.2735 c -1.1751,4.5507 -2.9015,12.5484 -3.8359,17.7734 l -1.6993,9.5 -36.7792,0.5 -36.7793,0.5 -2.5253,2.9375 c -2.4044,2.7964 -2.4918,3.3225 -1.8223,10.9981 3.4912,40.0219 20.0956,82.2272 45.8223,116.4687 27.9459,37.1953 69.4202,66.6029 115.1346,81.6387 l 11.0645,3.6406 v 8.2324 c 0,11.5462 1.9019,13.9001 16.9785,21.0117 15.7645,7.4358 23.5216,14.8754 23.5216,22.5567 0,4.0157 -2.1506,9.0062 -4.9629,11.5137 -5.0679,4.5187 -5.4062,6.6243 -3.1055,19.3671 6.4148,35.5314 15.1352,85.1521 15.6601,89.1094 l 0.6055,4.5664 -11.0019,-0.022 -11.0021,-0.019 -9.3457,4.8086 c -5.1406,2.6442 -14.2976,7.5971 -20.3476,11.0078 -14.7235,8.3004 -14.8255,8.5019 -14.0957,27.6836 0.3034,7.975 1.1528,17.7625 1.8867,21.75 0.5368,2.9167 0.7796,4.8523 0.7519,5.9922 h 203.88685 c -0.5344,-0.3697 -0.3245,-1.2725 0.2481,-3.4922 0.532,-2.0625 1.2192,-12.4104 1.5254,-22.9961 l 0.5566,-19.2461 -2.8789,-2.6035 c -1.5836,-1.4318 -10.7558,-6.9341 -20.3808,-12.2285 l -17.5,-9.627 -12.709,-0.3535 -12.709,-0.3515 0.5058,-2.6719 c 0.2781,-1.4693 4.5245,-25.3782 9.4356,-53.1328 9.857,-55.7056 9.6096,-50.9404 3.0117,-58.1582 -4.0618,-4.4435 -5.5283,-9.8505 -3.9609,-14.5996 2.0138,-6.102 8.5803,-11.535 21.9746,-18.1817 6.7669,-3.358 13.1081,-6.8343 14.0918,-7.7246 3.3094,-2.9949 5.2011,-9.8443 4.5195,-16.3652 l -0.623,-5.9629 5.7304,-1.6524 c 28.7141,-8.2749 62.5695,-26.8553 86.7325,-47.6015 44.9575,-38.6002 72.385,-90.3736 79.5214,-150.1133 0.9785,-8.1905 0.9062,-9.0618 -1.0039,-12.1523 -1.1315,-1.8309 -2.7603,-3.5982 -3.6191,-3.9278 -0.8589,-0.3295 -17.6508,-0.5996 -37.3164,-0.5996 h -35.7559 l -1.6621,-9.25 c -0.9134,-5.0875 -2.7527,-13.3 -4.0879,-18.25 l -2.4277,-9 2.8066,-3 c 4.4745,-4.7841 5.4062,-7.2124 4.0371,-10.5176 -2.3003,-5.5536 5.8231,-5.9715 -118.1347,-5.9824 z m -61.8438,41.5 c 0.9952,0 4.4926,9.3897 11.4551,30.75 l 10.0234,30.75 h 32.1954 c 18.2321,0 32.4397,0.3954 32.7578,0.9101 0.7747,1.2535 -2.1079,3.5424 -28.4375,22.6055 -12.6541,9.1618 -23.0078,17.0661 -23.0078,17.5645 -10e-5,0.4983 4.2749,14.1053 9.5,30.2383 5.2249,16.133 9.5,29.915 9.5,30.625 -10e-5,0.7524 -0.752,1.0936 -1.8047,0.8183 -0.9935,-0.2598 -13.1518,-8.681 -27.0176,-18.7129 l -25.211,-18.2402 -12.2324,8.8359 c -6.72825,4.8595 -18.27235,13.2277 -25.65235,18.5957 -7.38,5.3681 -14.0175,9.7598 -14.75,9.7598 -0.7325,0 -1.332,-0.7429 -1.332,-1.6504 0,-0.9076 3.185,-11.3701 7.0781,-23.25 11.856,-36.1791 12.1733,-37.2491 11.2832,-38.082 -0.4739,-0.4433 -12.1113,-8.975 -25.8614,-18.959 -13.75,-9.9841 -25,-18.6941 -25,-19.3555 0,-0.9068 8.0112,-1.2682 32.5626,-1.4668 l 32.5605,-0.2637 9.97855,-30.7363 c 6.9377,-21.3692 10.4161,-30.7363 11.4121,-30.7363 z m -242.10355,32.5 h 27.3985 27.3964 l 0.5957,18.75 c 0.8853,27.9285 4.7743,49.1703 12.7754,69.7637 9.7222,25.0234 22.215,44.0368 41.2207,62.7363 4.3322,4.2625 7.7263,7.7083 7.541,7.6563 -1.5884,-0.4429 -17.8299,-10.1955 -24.9258,-14.9668 -23.989,-16.1301 -47.1385,-40.0237 -62.0175,-64.0137 -14.2382,-22.9567 -25.027,-50.9674 -29.3418,-76.1758 z m 423.58995,0 h 27.8183 c 26.0174,-8e-4 27.7855,0.1113 27.3164,1.748 -0.2758,0.9625 -1.2559,5.5599 -2.1777,10.2168 -4.0023,20.2195 -14.0231,45.6049 -25.5059,64.6152 -16.38,27.118 -41.348,52.886 -67.4844,69.6465 -3.8316,2.4571 -10.1167,6.1838 -13.9667,8.2813 l -7,3.8125 10.0976,-10.4102 c 33.8247,-34.8773 50.4168,-77.7267 50.7871,-131.1601 z"
     style="fill:#d35f8d;opacity:0.57" />
</svg>
